<svg width="15" height="15" viewBox="0 0 15 15" fill="none" xmlns="http://www.w3.org/2000/svg">
<path d="M14.114 4.06877C13.4893 3.30237 11.2979 1.90198 7.49989 1.90198C3.70184 1.90198 1.51044 3.30237 0.885826 4.06877C0.261216 4.83518 0.230748 5.72698 0.261216 6.36096C0.262388 6.39612 0.268248 6.44885 0.278794 6.50979C0.352623 6.93284 0.480357 7.23635 2.21473 7.23635C4.06512 7.23635 4.2702 6.78049 4.28192 6.44651C4.30067 5.90276 4.36512 5.18206 4.61004 5.02971C4.8995 4.85159 5.14676 4.2176 7.50106 4.18127C9.85536 4.21877 10.1026 4.85159 10.3921 5.02971C10.6382 5.18206 10.7015 5.90159 10.7202 6.44651C10.7319 6.78049 10.937 7.23635 12.7874 7.23635C14.5206 7.23635 14.6495 6.93166 14.7233 6.50979C14.7339 6.44885 14.7386 6.39612 14.7409 6.36096C14.769 5.72698 14.7397 4.83635 14.114 4.06877Z" fill="#C62828"/>
<path d="M12.7862 7.70628C11.6788 7.70628 10.4026 7.57737 10.3687 6.57659C10.3669 6.53047 10.3743 6.48447 10.3904 6.44122C10.4065 6.39798 10.431 6.35834 10.4625 6.32458C10.494 6.29082 10.5318 6.26362 10.5738 6.24452C10.6158 6.22543 10.6612 6.21482 10.7073 6.21331C10.8003 6.21039 10.8907 6.24436 10.9587 6.3078C11.0268 6.37124 11.067 6.45901 11.0706 6.55198C11.0753 6.68792 11.2522 7.00315 12.7862 7.00315C14.6062 7.00315 14.7468 6.29065 14.7468 6.29065C14.8628 6.57659 15.1312 7.60432 12.7862 7.70628Z" fill="#912221"/>
<path d="M2.21257 7.58909C3.31999 7.58909 4.59616 7.46018 4.63014 6.4594C4.63187 6.41328 4.62446 6.36728 4.60836 6.32404C4.59225 6.28079 4.56776 6.24115 4.53629 6.20739C4.50482 6.17364 4.46699 6.14643 4.42498 6.12734C4.38297 6.10824 4.3376 6.09763 4.29147 6.09612C4.19848 6.09321 4.10811 6.12717 4.04006 6.19061C3.97201 6.25405 3.9318 6.34183 3.92819 6.43479C3.9235 6.57073 3.74655 6.88596 2.21257 6.88596C0.392645 6.88596 0.25202 6.17346 0.25202 6.17346C0.13952 6.43362 -0.132356 7.48714 2.21257 7.58909Z" fill="#912221"/>
<path d="M11.489 3.52971C10.8726 3.27424 9.63866 2.92737 7.49998 2.92737C5.36131 2.92737 4.1285 3.27424 3.51092 3.52971C3.30819 3.61292 3.28944 3.88948 3.47694 4.00315C3.82733 4.21643 4.26326 4.62307 4.37576 5.36487C4.37928 5.38948 4.38631 5.41174 4.39334 5.43401C4.44256 5.24182 4.51053 5.09182 4.6078 5.03206C4.89725 4.85393 5.14452 4.21995 7.49881 4.18362C9.85311 4.22112 10.1004 4.85393 10.3898 5.03206C10.4871 5.09182 10.5551 5.24182 10.6043 5.43401C10.6113 5.41174 10.6183 5.38948 10.6219 5.36487C10.7344 4.62424 11.1703 4.21643 11.5207 4.00315C11.7094 3.88948 11.6918 3.61292 11.489 3.52971Z" fill="#912221"/>
<path d="M14.0085 5.43287C13.7683 4.84576 13.5632 4.60084 12.8812 4.33131C12.6351 4.23404 12.4874 4.05357 12.5484 3.90357C12.6093 3.75357 12.7687 3.70084 13.023 3.76764C13.7367 3.95279 14.2804 4.62193 14.2816 5.40709C14.2804 5.77272 14.1023 5.66139 14.0085 5.43287Z" fill="#F44336"/>
<path d="M1.21994 4.25629C1.26448 4.40512 1.5551 4.2809 1.90784 4.25277C2.39651 4.2141 2.54065 4.36645 2.75744 4.59379C2.93908 4.78481 3.19924 4.78832 3.29533 4.65824C3.3926 4.52816 3.33518 4.38402 3.1676 4.18129C3.04338 4.03012 2.50783 3.67035 1.71682 3.88363C1.53752 3.93402 1.17307 4.09926 1.21994 4.25629Z" fill="#F44336"/>
<path d="M2.21362 11.2043V13.6992C2.21362 14.1586 2.60972 14.5312 3.09722 14.5312H11.9027C12.3902 14.5312 12.7863 14.1586 12.7863 13.6992V11.1469L2.21362 11.2043Z" fill="#C62828"/>
<path d="M12.7606 10.7848C12.7606 10.7848 11.8454 6.52852 11.6977 5.77617C11.5501 5.02383 11.2934 4.80234 10.8598 4.79531C10.5681 4.79062 10.2598 4.59023 10.2083 4.23047C10.1567 3.87539 10.145 3.6668 10.1239 3.50977C10.1028 3.35273 10.1087 3.12305 9.88368 3.12305H9.43719C9.23797 3.12305 9.22157 3.16172 9.18876 3.44297C9.15594 3.72539 9.11141 4.26914 9.00126 4.54102C8.90633 4.77422 8.65555 4.79531 8.51258 4.79531H6.48641C6.34461 4.79531 6.09266 4.77422 5.99774 4.54102C5.88758 4.26914 5.84188 3.72422 5.81024 3.44297C5.77743 3.16055 5.76102 3.12305 5.5618 3.12305H5.11532C4.89149 3.12305 4.89735 3.35273 4.87508 3.50977C4.85399 3.6668 4.84227 3.87539 4.79071 4.23047C4.73797 4.59023 4.43094 4.79062 4.13915 4.79531C3.70555 4.80234 3.44891 5.02383 3.30126 5.77617C3.1536 6.52852 2.23837 10.7848 2.23837 10.7848C2.11532 11.6133 2.40243 11.9602 3.88837 11.9602H11.1095C12.5977 11.9602 12.8848 11.6133 12.7606 10.7848Z" fill="#FF4638"/>
<path d="M10.371 6.8947L9.93506 6.18337L8.96943 6.01697L8.61787 6.22673C8.53584 6.27595 8.43389 6.27244 8.3542 6.22087L8.17256 6.10134L6.83545 6.11189L6.696 6.21267C6.61514 6.27126 6.50615 6.27478 6.42178 6.22322L6.10068 6.02634L4.62881 6.8947L4.10498 9.88298L4.12959 10.4232C4.13428 10.5334 4.22568 10.6201 4.33584 10.6201H10.6651C10.7753 10.6201 10.8667 10.5334 10.8714 10.4232L10.896 9.88298L10.371 6.8947Z" fill="#4E342E"/>
<path d="M9.21571 8.49136H10.4239C10.5376 8.49136 10.6243 8.38823 10.6044 8.2769L10.4931 7.63823C10.4778 7.55034 10.4016 7.48706 10.3126 7.48706H9.14071C9.03055 7.48706 8.94618 7.58315 8.95907 7.69214L9.03524 8.33081C9.04461 8.42222 9.12313 8.49136 9.21571 8.49136Z" fill="#F5F5F5"/>
<path d="M6.95971 7.07827H8.05541C8.15971 7.07827 8.24409 6.99038 8.23823 6.88608L8.2019 6.18882C8.19949 6.14198 8.17917 6.09785 8.14515 6.06557C8.11112 6.03329 8.06599 6.01532 8.01909 6.01538H6.99604C6.89877 6.01538 6.81791 6.09155 6.81323 6.18882L6.7769 6.88608C6.77104 6.99038 6.85541 7.07827 6.95971 7.07827Z" fill="#F5F5F5"/>
<path d="M8.17382 9.0199H6.8414C6.74414 9.0199 6.66328 9.09607 6.65859 9.19333L6.62578 9.83201C6.61992 9.9363 6.70429 10.0242 6.80859 10.0242H8.20663C8.31093 10.0242 8.39531 9.9363 8.38945 9.83201L8.35663 9.19333C8.35423 9.14649 8.33391 9.10237 8.29989 9.07009C8.26586 9.0378 8.22073 9.01984 8.17382 9.0199Z" fill="#F5F5F5"/>
<path d="M6.88954 8.49136H8.1247C8.22899 8.49136 8.31337 8.40347 8.30751 8.29917L8.2747 7.6605C8.27229 7.61366 8.25198 7.56953 8.21795 7.53725C8.18392 7.50497 8.13879 7.487 8.09189 7.48706H6.92236C6.82509 7.48706 6.74423 7.56323 6.73954 7.6605L6.70673 8.29917C6.70204 8.40347 6.78525 8.49136 6.88954 8.49136Z" fill="#F5F5F5"/>
<path d="M5.68611 9.0199H4.41111C4.32205 9.0199 4.24588 9.08435 4.23064 9.17107L4.11931 9.80974C4.09939 9.92224 4.18611 10.0242 4.29978 10.0242H5.61111C5.70369 10.0242 5.78221 9.95505 5.79275 9.86247L5.86892 9.2238C5.88064 9.11599 5.79627 9.0199 5.68611 9.0199Z" fill="#F5F5F5"/>
<path d="M4.57627 8.49143H5.79854C5.89112 8.49143 5.96963 8.42229 5.98018 8.32971L6.05635 7.69104C6.06924 7.58205 5.98487 7.48596 5.87471 7.48596H4.68877C4.59971 7.48596 4.52354 7.55041 4.5083 7.63713L4.39697 8.2758C4.37588 8.3883 4.4626 8.49143 4.57627 8.49143Z" fill="#F5F5F5"/>
<path d="M9.05399 7.07827H10.186C10.2997 7.07827 10.3864 6.97515 10.3665 6.86382L10.2446 6.16655C10.2294 6.07866 10.1532 6.01538 10.0641 6.01538H8.97079C8.86063 6.01538 8.77625 6.11147 8.78914 6.22046L8.87235 6.91772C8.88289 7.00913 8.96141 7.07827 9.05399 7.07827Z" fill="#F5F5F5"/>
<path d="M6.14285 6.91638L6.22605 6.21912C6.23894 6.11013 6.15457 6.01404 6.04441 6.01404H4.93582C4.84676 6.01404 4.77058 6.07849 4.75535 6.16521L4.63348 6.86247C4.61355 6.97497 4.70027 7.07693 4.81394 7.07693H5.96121C6.05379 7.0781 6.1323 7.00896 6.14285 6.91638Z" fill="#F5F5F5"/>
<path d="M9.14777 9.22503L9.22394 9.8637C9.23449 9.95628 9.31301 10.0254 9.40559 10.0254H10.7017C10.8154 10.0254 10.9021 9.9223 10.8821 9.81097L10.7708 9.1723C10.7556 9.08441 10.6794 9.02113 10.5904 9.02113H9.32941C9.22043 9.01996 9.13488 9.11605 9.14777 9.22503Z" fill="#F5F5F5"/>
</svg>
